#format: frame checksums
#version: 1
#hash: MD5
#tb 0: 1/24
#stream#, dts,        pts, duration,     size, hash
0,          0,          0,        1,    38016, 96e6ce168b5ef377053e86ab5484e7f9
0,          1,          1,        1,    38016, 10fd750292d8522ab7ee577043604789
0,          2,          2,        1,    38016, e040995173dc5c85abbbe38f6823ff9a
0,          3,          3,        1,    38016, 5aa18f4fbd8b5b887d74f84cc92075dc
0,          4,          4,        1,    38016, f0dc7f520e88b94e5cb924d804b0472a
0,          5,          5,        1,    38016, 2375955dce3bb0a824779a800cd1555b
0,          6,          6,        1,    38016, 3e96a0e477de39530e1950cff284a854
0,          7,          7,        1,    38016, 6cd40fa8a89221f2b990bd8af2a9ee14
0,          8,          8,        1,    38016, 0b929243ceeffce836279e2aa84647cd
0,          9,          9,        1,    38016, 1e95f0ad25fe033076b57c3852bb3550
0,         10,         10,        1,    38016, 81aa93a3f9c56d2aa4b8285d3507e6b4
0,         11,         11,        1,    38016, cf9947a302dec306d7f487cf3a2731b0
0,         12,         12,        1,    38016, 3b9ca47752db95a049678da07974b476
0,         13,         13,        1,    38016, aa6788405dc47dd44867fca6c95ba3d9
0,         14,         14,        1,    38016, 276d1c62b908c081c7bbb78f943b0de1
0,         15,         15,        1,    38016, eb006b6218e457fd794e9b3a5dfbf638
0,         16,         16,        1,    38016, 9dd5312833e770286c5aa5436a00376e
0,         17,         17,        1,    38016, 7899278e66aa255ce5bf69a6e1137d0f
0,         18,         18,        1,    38016, 0ac7d062ea7550fa0717723b1272abc2
0,         19,         19,        1,    38016, d8f1bb881a46ecafcbbe457a004a71f1
0,         20,         20,        1,    38016, cc3a04b98159189a74b5241df540d8fb
0,         21,         21,        1,    38016, 4e29eb2c8c465ae9ffcfa28ec0b3694b
0,         22,         22,        1,    38016, 608fb6ba526e6aa4ad1c0290aedaa69d
0,         23,         23,        1,    38016, 4acc6a73547be6310b9a275436c55805
0,         24,         24,        1,    38016, 482cf409b86242d30f3a78a6c85364df
0,         25,         25,        1,    38016, a22cb76770f112eb1169218cc87c1e4f
0,         26,         26,        1,    38016, e74675b051ff05e178a9a24893721d99
0,         27,         27,        1,    38016, ee5061bff62c8c8603b7bc2bb2bb29e8
0,         28,         28,        1,    38016, a3c0ab11f338bd488c69f2b62e1e5a74
0,         29,         29,        1,    38016, 9f6b7e30e0ed4e272393b9a9957752e1
0,         30,         30,        1,    38016, 9cce9f2ffff1766d05bda04e46eff997
0,         31,         31,        1,    38016, 5105a2ba923bc6f21ea3d32ab1bc7bf8
0,         32,         32,        1,    38016, 957d619a1001e2b5e52db166b66b7f50
0,         33,         33,        1,    38016, fdb4e71cddeec8a321d9c8d4ffc506ce
0,         34,         34,        1,    38016, 9ee646940fb8ac2312d29e9f1c3b6d40
0,         35,         35,        1,    38016, a110e81d2105beae81cd36b15bc5ac2f
0,         36,         36,        1,    38016, 804b6d8fc99fadb9c6bfdae3becee6b5
0,         37,         37,        1,    38016, e217627bbaeebf30456e38aeb1f0746b
0,         38,         38,        1,    38016, 56468a2c548dd3085b4bce88c4a1e41d
0,         39,         39,        1,    38016, ef170e7f21e2b262525b43d6b25dec4c
0,         40,         40,        1,    38016, 3acc3c47def8a0fa0561eaacaf9e41a1
0,         41,         41,        1,    38016, 0c3e2187f13e4504fb4b246706bba83c
0,         42,         42,        1,    38016, 397326a22e6e49487309c39d64037df8
0,         43,         43,        1,    38016, 95236c1319b6f1f692b3998547811ee7
0,         44,         44,        1,    38016, 5aff1957504884abf74d6fb74b74b032
0,         45,         45,        1,    38016, 6de06343435a8926a746037cab5f633c
0,         46,         46,        1,    38016, 3de68e05ddf2c60ee9110048ceefeb6a
0,         47,         47,        1,    38016, e637fef689edad6ffd6eeb4a29004bf7
0,         48,         48,        1,    38016, bb809114af8df5cb4ed82d3a1d11a673
